<svg xmlns="http://www.w3.org/2000/svg" width="1024" height="1024" viewBox="0 0 1024 1024">
  <rect x="64" y="64" width="896" height="896" rx="224" fill="#171923"/>
  <rect x="96" y="96" width="832" height="832" rx="196" fill="none" stroke="#2c3040" stroke-width="16"/>

  <g shape-rendering="crispEdges" transform="translate(176 176) scale(42)">
    <path
      fill="#f2a93b"
      d="M2 6V1h2v2h2V2h4v1h2V1h2v5h1v6h-2v2h-2v1H5v-1H3v-2H1V6h1Z"
    />
    <path fill="#ffe6a3" d="M4 7h2v2H4V7Zm6 0h2v2h-2V7Z"/>
    <path fill="#171923" d="M7 10h2v1h1v1H6v-1h1v-1Z"/>
  </g>
</svg>
